Plot.

When nuclear weapons are smuggled into America, FBI Agent Shane Daughtry (David A.R White) is faced with an impossible task -- find them before they are detonated. The clock is ticking and the only people who can help are a washed up arms dealer (Lee Majors), a converted Israeli Mossad Agent (Stacy Keach) and a by- the-book CIA Deputy Director (Randy Travis) 


General.

Complete name                    : Jerusalem Countdown[2011]ENG[BRRip]Xvid-{RedDragon}.avi
Format                           : MPEG-4
Format profile                   : Base Media / Version 2
Codec ID                         : mp42
File size                        : 805 MiB
Duration                         : 1h 21mn
Overall bit rate                 : 1,374 Kbps
IMDB Link                            : http://www.imdb.com/title/tt1562563/
IMDB Rating                        : 3.2/10

Video.

ID                               : 1
Format                           : AVC
Format/Info                      : Advanced Video Codec
Format profile                   : Main@L3.0
Format settings, CABAC           : Yes
Format settings, ReFrames        : 4 frames
Codec ID                         : avc1
Codec ID/Info                    : Advanced Video Coding
Duration                         : 1h 21mn
Bit rate mode                    : Variable
Bit rate                         : 1 203 Kbps
Width                            : 622 pixels
Height                           : 360 pixels
Display aspect ratio             : 16:9
Frame rate mode                  : Constant
Frame rate                       : 25.000 fps
Color space                      : YUV
Chroma subsampling               : 4:2:0
Bit depth                        : 8 bits
Scan type                        : Progressive
Bits/(Pixel*Frame)               : 0.215
Stream size                      : 709 MiB (88%)
Writing library                  : x264 core 112
Encoded date                     : UTC 2012-02-18 13:26:33


Audio.

ID                               : 2
Format                           : AAC
Format/Info                      : Advanced Audio Codec
Format version                   : Version 4
Format profile                   : LC
Format settings, SBR             : No
Codec ID                         : 40
Duration                         : 1h 21mn
Bit rate mode                    : Variable
Bit rate                         : 160 Kbps
Maximum bit rate                 : 188 Kbps
Channel(s)                       : 2 channels
Channel positions                : Front: L R
Sampling rate                    : 48.0 KHz
Stream size                      : 93.7 MiB (12%)
Encoded date                     : UTC 2012-02-18 13:26:33
Tagged date                      : UTC 2012-02-18 14:07:04


